<svg width="2145" height="520" xmlns="http://www.w3.org/2000/svg" xmlns:xlink="http://www.w3.org/1999/xlink" xml:space="preserve" overflow="hidden"><defs><clipPath id="clip0"><rect x="757" y="600" width="2145" height="520"/></clipPath></defs><g clip-path="url(#clip0)" transform="translate(-757 -600)"><path d="M1227.06 1112.62 1239.34 1112.62 1239.34 1069.94 1226 1072.65 1226 1065.71 1239.27 1063 1246.76 1063 1246.76 1112.62 1259 1112.62 1259 1119 1227.06 1119 1227.06 1112.62" fill-rule="evenodd"/><path d="M1392.5 1067.97C1388.58 1067.97 1385.6 1069.91 1383.61 1073.72 1381.65 1077.54 1380.67 1083.3 1380.67 1091 1380.67 1098.7 1381.65 1104.45 1383.61 1108.27 1385.61 1112.09 1388.58 1114.03 1392.5 1114.03 1396.46 1114.03 1399.43 1112.09 1401.39 1108.27 1403.39 1104.45 1404.37 1098.7 1404.37 1091 1404.37 1083.3 1403.39 1077.54 1401.39 1073.72 1399.43 1069.91 1396.46 1067.97 1392.5 1067.97M1392.5 1062C1398.84 1062 1403.67 1064.49 1406.99 1069.42 1410.32 1074.35 1412 1081.56 1412 1091 1412 1100.44 1410.32 1107.65 1406.99 1112.58 1403.67 1117.57 1398.84 1120 1392.5 1120 1386.16 1120 1381.33 1117.57 1377.97 1112.58 1374.65 1107.65 1373 1100.44 1373 1091 1373 1081.56 1374.64 1074.35 1377.97 1069.42 1381.33 1064.5 1386.16 1062 1392.5 1062" fill-rule="evenodd"/><path d="M1527.1 1112.62 1539.71 1112.62 1539.71 1069.94 1526 1072.65 1526 1065.71 1539.63 1063 1547.36 1063 1547.36 1112.62 1560 1112.62 1560 1119 1527.1 1119 1527.1 1112.62" fill-rule="evenodd"/><path d="M1693.48 1067.97C1689.56 1067.97 1686.59 1069.91 1684.63 1073.72 1682.67 1077.54 1681.69 1083.3 1681.69 1091 1681.69 1098.7 1682.67 1104.45 1684.63 1108.27 1686.59 1112.09 1689.56 1114.03 1693.48 1114.03 1697.47 1114.03 1700.41 1112.09 1702.37 1108.27 1704.36 1104.45 1705.38 1098.7 1705.38 1091 1705.38 1083.3 1704.36 1077.54 1702.37 1073.72 1700.41 1069.91 1697.47 1067.97 1693.48 1067.97M1693.48 1062C1699.81 1062 1704.64 1064.49 1707.96 1069.42 1711.32 1074.35 1713 1081.56 1713 1091 1713 1100.44 1711.32 1107.65 1707.96 1112.58 1704.64 1117.57 1699.81 1120 1693.48 1120 1687.19 1120 1682.36 1117.57 1679 1112.58 1675.68 1107.65 1674 1100.44 1674 1091 1674 1081.56 1675.68 1074.35 1679 1069.42 1682.36 1064.5 1687.19 1062 1693.48 1062" fill-rule="evenodd"/><path d="M1843.98 1067.97C1839.96 1067.97 1836.95 1069.91 1834.87 1073.72 1832.86 1077.54 1831.86 1083.3 1831.86 1091 1831.86 1098.7 1832.86 1104.45 1834.87 1108.27 1836.95 1112.09 1839.96 1114.03 1843.98 1114.03 1848.07 1114.03 1851.08 1112.09 1853.09 1108.27 1855.1 1104.45 1856.18 1098.7 1856.18 1091 1856.18 1083.3 1855.1 1077.54 1853.09 1073.72 1851.08 1069.91 1848.07 1067.97 1843.98 1067.97M1843.98 1062C1850.44 1062 1855.39 1064.49 1858.83 1069.42 1862.27 1074.35 1864 1081.56 1864 1091 1864 1100.44 1862.28 1107.65 1858.83 1112.58 1855.39 1117.57 1850.44 1120 1843.98 1120 1837.52 1120 1832.54 1117.57 1829.13 1112.58 1825.72 1107.65 1824 1100.44 1824 1091 1824 1081.56 1825.72 1074.35 1829.13 1069.42 1832.54 1064.5 1837.53 1062 1843.98 1062" fill-rule="evenodd"/><path d="M2445.53 1067.97C2441.61 1067.97 2438.6 1069.91 2436.64 1073.72 2434.68 1077.54 2433.7 1083.3 2433.7 1091 2433.7 1098.7 2434.68 1104.45 2436.64 1108.27 2438.6 1112.09 2441.61 1114.03 2445.53 1114.03 2449.46 1114.03 2452.4 1112.09 2454.43 1108.27 2456.39 1104.45 2457.37 1098.7 2457.37 1091 2457.37 1083.3 2456.39 1077.54 2454.43 1073.72 2452.4 1069.91 2449.46 1067.97 2445.53 1067.97M2445.53 1062C2451.84 1062 2456.67 1064.49 2459.96 1069.42 2463.32 1074.35 2465 1081.56 2465 1091 2465 1100.44 2463.32 1107.65 2459.96 1112.58 2456.67 1117.57 2451.84 1120 2445.53 1120 2439.16 1120 2434.33 1117.57 2430.97 1112.58 2427.68 1107.65 2426 1100.44 2426 1091 2426 1081.56 2427.68 1074.35 2430.97 1069.42 2434.33 1064.5 2439.16 1062 2445.53 1062" fill-rule="evenodd"/><path d="M2595.5 1067.97C2591.58 1067.97 2588.65 1069.91 2586.62 1073.72 2584.67 1077.54 2583.69 1083.3 2583.69 1091 2583.69 1098.7 2584.67 1104.45 2586.62 1108.27 2588.65 1112.09 2591.58 1114.03 2595.5 1114.03 2599.48 1114.03 2602.42 1112.09 2604.37 1108.27 2606.33 1104.45 2607.38 1098.7 2607.38 1091 2607.38 1083.3 2606.33 1077.54 2604.37 1073.72 2602.41 1069.91 2599.48 1067.97 2595.5 1067.97M2595.5 1062C2601.79 1062 2606.61 1064.49 2609.97 1069.42 2613.32 1074.35 2615 1081.56 2615 1091 2615 1100.44 2613.32 1107.65 2609.97 1112.58 2606.61 1117.57 2601.79 1120 2595.5 1120 2589.21 1120 2584.39 1117.57 2581.03 1112.58 2577.68 1107.65 2576 1100.44 2576 1091 2576 1081.56 2577.67 1074.35 2581.03 1069.42 2584.39 1064.5 2589.21 1062 2595.5 1062" fill-rule="evenodd"/><path d="M1979.03 1112.62 1991.27 1112.62 1991.27 1069.94 1978 1072.65 1978 1065.71 1991.2 1063 1998.7 1063 1998.7 1112.62 2011 1112.62 2011 1119 1979.03 1119 1979.03 1112.62" fill-rule="evenodd"/><path d="M2129.14 1112.62 2141.74 1112.62 2141.74 1069.94 2128 1072.65 2128 1065.71 2141.67 1063 2149.39 1063 2149.39 1112.62 2162 1112.62 2162 1119 2129.14 1119 2129.14 1112.62" fill-rule="evenodd"/><path d="M2279.14 1112.62 2291.74 1112.62 2291.74 1069.94 2278 1072.65 2278 1065.71 2291.67 1063 2299.39 1063 2299.39 1112.62 2312 1112.62 2312 1119 2279.14 1119 2279.14 1112.62" fill-rule="evenodd"/><path d="M2730.14 1112.62 2742.74 1112.62 2742.74 1069.94 2729 1072.65 2729 1065.71 2742.67 1063 2750.39 1063 2750.39 1112.62 2763 1112.62 2763 1119 2730.14 1119 2730.14 1112.62" fill-rule="evenodd"/><path d="M1167.5 756.5 1092.5 756.5" stroke="#ED3411" stroke-width="6.875" stroke-linecap="square" stroke-miterlimit="8" fill="none" fill-rule="evenodd"/><path d="M1167.5 605.5 1167.5 756.5" stroke="#ED3411" stroke-width="6.875" stroke-linecap="square" stroke-miterlimit="8" fill="none" fill-rule="evenodd"/><path d="M1243.5 605.5 1167.5 605.5" stroke="#ED3411" stroke-width="6.875" stroke-linecap="square" stroke-miterlimit="8" fill="none" fill-rule="evenodd"/><path d="M1243.5 756.5 1243.5 605.5" stroke="#ED3411" stroke-width="6.875" stroke-linecap="square" stroke-miterlimit="8" fill="none" fill-rule="evenodd"/><path d="M1318.5 756.5 1243.5 756.5" stroke="#ED3411" stroke-width="6.875" stroke-linecap="square" stroke-miterlimit="8" fill="none" fill-rule="evenodd"/><path d="M1318.5 605.5 1318.5 756.5" stroke="#ED3411" stroke-width="6.875" stroke-linecap="square" stroke-miterlimit="8" fill="none" fill-rule="evenodd"/><path d="M1393.5 605.5 1318.5 605.5" stroke="#ED3411" stroke-width="6.875" stroke-linecap="square" stroke-miterlimit="8" fill="none" fill-rule="evenodd"/><path d="M1393.5 756.5 1393.5 605.5" stroke="#ED3411" stroke-width="6.875" stroke-linecap="square" stroke-miterlimit="8" fill="none" fill-rule="evenodd"/><path d="M1468.5 756.5 1393.5 756.5" stroke="#ED3411" stroke-width="6.875" stroke-linecap="square" stroke-miterlimit="8" fill="none" fill-rule="evenodd"/><path d="M1468.5 605.5 1468.5 756.5" stroke="#ED3411" stroke-width="6.875" stroke-linecap="square" stroke-miterlimit="8" fill="none" fill-rule="evenodd"/><path d="M1543.5 605.5 1468.5 605.5" stroke="#ED3411" stroke-width="6.875" stroke-linecap="square" stroke-miterlimit="8" fill="none" fill-rule="evenodd"/><path d="M1543.5 756.5 1543.5 605.5" stroke="#ED3411" stroke-width="6.875" stroke-linecap="square" stroke-miterlimit="8" fill="none" fill-rule="evenodd"/><path d="M1618.5 756.5 1543.5 756.5" stroke="#ED3411" stroke-width="6.875" stroke-linecap="square" stroke-miterlimit="8" fill="none" fill-rule="evenodd"/><path d="M1618.5 605.5 1618.5 756.5" stroke="#ED3411" stroke-width="6.875" stroke-linecap="square" stroke-miterlimit="8" fill="none" fill-rule="evenodd"/><path d="M1694.5 605.5 1618.5 605.5" stroke="#ED3411" stroke-width="6.875" stroke-linecap="square" stroke-miterlimit="8" fill="none" fill-rule="evenodd"/><path d="M1694.5 756.5 1694.5 605.5" stroke="#ED3411" stroke-width="6.875" stroke-linecap="square" stroke-miterlimit="8" fill="none" fill-rule="evenodd"/><path d="M1769.5 756.5 1694.5 756.5" stroke="#ED3411" stroke-width="6.875" stroke-linecap="square" stroke-miterlimit="8" fill="none" fill-rule="evenodd"/><path d="M1769.5 605.5 1769.5 756.5" stroke="#ED3411" stroke-width="6.875" stroke-linecap="square" stroke-miterlimit="8" fill="none" fill-rule="evenodd"/><path d="M1844.5 605.5 1769.5 605.5" stroke="#ED3411" stroke-width="6.875" stroke-linecap="square" stroke-miterlimit="8" fill="none" fill-rule="evenodd"/><path d="M1844.5 756.5 1844.5 605.5" stroke="#ED3411" stroke-width="6.875" stroke-linecap="square" stroke-miterlimit="8" fill="none" fill-rule="evenodd"/><path d="M1919.5 756.5 1844.5 756.5" stroke="#ED3411" stroke-width="6.875" stroke-linecap="square" stroke-miterlimit="8" fill="none" fill-rule="evenodd"/><path d="M1919.5 605.5 1919.5 756.5" stroke="#ED3411" stroke-width="6.875" stroke-linecap="square" stroke-miterlimit="8" fill="none" fill-rule="evenodd"/><path d="M1994.5 605.5 1919.5 605.5" stroke="#ED3411" stroke-width="6.875" stroke-linecap="square" stroke-miterlimit="8" fill="none" fill-rule="evenodd"/><path d="M1994.5 756.5 1994.5 605.5" stroke="#ED3411" stroke-width="6.875" stroke-linecap="square" stroke-miterlimit="8" fill="none" fill-rule="evenodd"/><path d="M2069.5 756.5 1994.5 756.5" stroke="#ED3411" stroke-width="6.875" stroke-linecap="square" stroke-miterlimit="8" fill="none" fill-rule="evenodd"/><path d="M2069.5 605.5 2069.5 756.5" stroke="#ED3411" stroke-width="6.875" stroke-linecap="square" stroke-miterlimit="8" fill="none" fill-rule="evenodd"/><path d="M2145.5 605.5 2069.5 605.5" stroke="#ED3411" stroke-width="6.875" stroke-linecap="square" stroke-miterlimit="8" fill="none" fill-rule="evenodd"/><path d="M2145.5 756.5 2145.5 605.5" stroke="#ED3411" stroke-width="6.875" stroke-linecap="square" stroke-miterlimit="8" fill="none" fill-rule="evenodd"/><path d="M2220.5 756.5 2145.5 756.5" stroke="#ED3411" stroke-width="6.875" stroke-linecap="square" stroke-miterlimit="8" fill="none" fill-rule="evenodd"/><path d="M2220.5 605.5 2220.5 756.5" stroke="#ED3411" stroke-width="6.875" stroke-linecap="square" stroke-miterlimit="8" fill="none" fill-rule="evenodd"/><path d="M2295.5 605.5 2220.5 605.5" stroke="#ED3411" stroke-width="6.875" stroke-linecap="square" stroke-miterlimit="8" fill="none" fill-rule="evenodd"/><path d="M2295.5 756.5 2295.5 605.5" stroke="#ED3411" stroke-width="6.875" stroke-linecap="square" stroke-miterlimit="8" fill="none" fill-rule="evenodd"/><path d="M2370.5 756.5 2295.5 756.5" stroke="#ED3411" stroke-width="6.875" stroke-linecap="square" stroke-miterlimit="8" fill="none" fill-rule="evenodd"/><path d="M2370.5 605.5 2370.5 756.5" stroke="#ED3411" stroke-width="6.875" stroke-linecap="square" stroke-miterlimit="8" fill="none" fill-rule="evenodd"/><path d="M2445.5 605.5 2370.5 605.5" stroke="#ED3411" stroke-width="6.875" stroke-linecap="square" stroke-miterlimit="8" fill="none" fill-rule="evenodd"/><path d="M2445.5 756.5 2445.5 605.5" stroke="#ED3411" stroke-width="6.875" stroke-linecap="square" stroke-miterlimit="8" fill="none" fill-rule="evenodd"/><path d="M2521.5 756.5 2445.5 756.5" stroke="#ED3411" stroke-width="6.875" stroke-linecap="square" stroke-miterlimit="8" fill="none" fill-rule="evenodd"/><path d="M2521.5 605.5 2521.5 756.5" stroke="#ED3411" stroke-width="6.875" stroke-linecap="square" stroke-miterlimit="8" fill="none" fill-rule="evenodd"/><path d="M2596.5 605.5 2521.5 605.5" stroke="#ED3411" stroke-width="6.875" stroke-linecap="square" stroke-miterlimit="8" fill="none" fill-rule="evenodd"/><path d="M2596.5 756.5 2596.5 605.5" stroke="#ED3411" stroke-width="6.875" stroke-linecap="square" stroke-miterlimit="8" fill="none" fill-rule="evenodd"/><path d="M2671.5 756.5 2596.5 756.5" stroke="#ED3411" stroke-width="6.875" stroke-linecap="square" stroke-miterlimit="8" fill="none" fill-rule="evenodd"/><path d="M2671.5 605.5 2671.5 756.5" stroke="#ED3411" stroke-width="6.875" stroke-linecap="square" stroke-miterlimit="8" fill="none" fill-rule="evenodd"/><path d="M2746.5 605.5 2671.5 605.5" stroke="#ED3411" stroke-width="6.875" stroke-linecap="square" stroke-miterlimit="8" fill="none" fill-rule="evenodd"/><path d="M2746.5 756.5 2746.5 605.5" stroke="#ED3411" stroke-width="6.875" stroke-linecap="square" stroke-miterlimit="8" fill="none" fill-rule="evenodd"/><path d="M2896.5 756.5 2746.5 756.5" stroke="#ED3411" stroke-width="6.875" stroke-linecap="square" stroke-miterlimit="8" fill="none" fill-rule="evenodd"/><path d="M1167.5 1016.5 1092.5 1016.5" stroke="#ED3411" stroke-width="6.875" stroke-linecap="square" stroke-miterlimit="8" fill="none" fill-rule="evenodd"/><path d="M1167.5 865.5 1167.5 1016.5" stroke="#ED3411" stroke-width="6.875" stroke-linecap="square" stroke-miterlimit="8" fill="none" fill-rule="evenodd"/><path d="M1318.5 865.5 1167.5 865.5" stroke="#ED3411" stroke-width="6.875" stroke-linecap="square" stroke-miterlimit="8" fill="none" fill-rule="evenodd"/><path d="M1318.5 1016.5 1318.5 865.5" stroke="#ED3411" stroke-width="6.875" stroke-linecap="square" stroke-miterlimit="8" fill="none" fill-rule="evenodd"/><path d="M1618.5 865.5 1618.5 1016.5" stroke="#ED3411" stroke-width="6.875" stroke-linecap="square" stroke-miterlimit="8" fill="none" fill-rule="evenodd"/><path d="M2370.5 1016.5 2370.5 865.5" stroke="#ED3411" stroke-width="6.875" stroke-linecap="square" stroke-miterlimit="8" fill="none" fill-rule="evenodd"/><path d="M2671.5 1016.5 2370.5 1016.5" stroke="#ED3411" stroke-width="6.875" stroke-linecap="square" stroke-miterlimit="8" fill="none" fill-rule="evenodd"/><path d="M1468.5 1016.5 1468.5 865.5" stroke="#ED3411" stroke-width="6.875" stroke-linecap="square" stroke-miterlimit="8" fill="none" fill-rule="evenodd"/><path d="M1618.5 865.5 1468.5 865.5" stroke="#ED3411" stroke-width="6.875" stroke-linecap="square" stroke-miterlimit="8" fill="none" fill-rule="evenodd"/><path d="M1919.5 1016.5 1618.5 1016.5" stroke="#ED3411" stroke-width="6.875" stroke-linecap="square" stroke-miterlimit="8" fill="none" fill-rule="evenodd"/><path d="M1919.5 865.5 1919.5 1016.5" stroke="#ED3411" stroke-width="6.875" stroke-linecap="square" stroke-miterlimit="8" fill="none" fill-rule="evenodd"/><path d="M2370.5 865.5 1919.5 865.5" stroke="#ED3411" stroke-width="6.875" stroke-linecap="square" stroke-miterlimit="8" fill="none" fill-rule="evenodd"/><path d="M2671.5 865.5 2671.5 1016.5" stroke="#ED3411" stroke-width="6.875" stroke-linecap="square" stroke-miterlimit="8" fill="none" fill-rule="evenodd"/><path d="M2821.5 865.5 2671.5 865.5" stroke="#ED3411" stroke-width="6.875" stroke-linecap="square" stroke-miterlimit="8" fill="none" fill-rule="evenodd"/><path d="M2821.5 1016.5 2821.5 865.5" stroke="#ED3411" stroke-width="6.875" stroke-linecap="square" stroke-miterlimit="8" fill="none" fill-rule="evenodd"/><path d="M2896.5 1016.5 2821.5 1016.5" stroke="#ED3411" stroke-width="6.875" stroke-linecap="square" stroke-miterlimit="8" fill="none" fill-rule="evenodd"/><path d="M1468.5 1016.5 1318.5 1016.5" stroke="#ED3411" stroke-width="6.875" stroke-linecap="square" stroke-miterlimit="8" fill="none" fill-rule="evenodd"/><path d="M800.631 672.534C798.594 665.2 794.716 657.459 784.34 657.459 773.868 657.459 764.947 665.77 764.947 685 764.947 704.23 773.868 712.541 784.34 712.541 794.231 712.541 798.789 704.963 800.631 697.467L808.001 699.097C805.865 709.526 797.918 718 784.344 718 768.634 718 757 705.86 757 685 757 664.141 768.637 652 784.344 652 797.723 652 805.482 660.311 807.71 671.067L800.631 672.534Z" fill-rule="evenodd"/><path d="M827 717 819 717 819 653 827 653 827 717Z" fill-rule="evenodd"/><path d="M837 694C837 676.986 846.534 670 858.498 670 870.463 670 880 676.986 880 694 880 711.014 870.466 718 858.498 718 846.53 718 837 711.014 837 694ZM872.413 694C872.413 686.274 870.175 675.425 858.498 675.425 846.825 675.425 844.587 686.274 844.587 694 844.587 701.726 846.825 712.576 858.498 712.576 870.175 712.576 872.413 701.726 872.413 694Z" fill-rule="evenodd"/><path d="M921.957 683.973C920.068 679.781 917.091 675.26 910.938 675.425 899.026 675.425 896.742 686.274 896.742 694 896.742 701.726 899.026 712.576 910.938 712.576 917.588 712.329 921.363 707.891 923.745 703.452L930 705.754C926.823 712.658 919.775 718 910.938 718 898.725 718 889 711.014 889 694 889 676.986 898.729 670 910.938 670 919.974 670 925.533 674.685 928.509 681.507L921.957 683.973Z" fill-rule="evenodd"/><path d="M947.54 692.652 967.363 671.594 975.775 671.594 961.08 687.141 978 717 969.878 717 956.245 692.323 947.543 701.453 947.543 717 940 717 940 653 947.543 653 947.543 692.652Z" fill-rule="evenodd"/><path d="M811.832 931C833.998 931 844 944.618 844 963.166 844 983.886 833.995 996 809.772 996L793 996 793 931 811.832 931ZM801.042 990.155 808.597 990.155C827.622 989.988 835.961 981.8 835.961 962.919 835.961 946.292 828.113 937.019 812.322 936.852L801.042 936.852 801.042 990.155Z" fill-rule="evenodd"/><path d="M883.839 995.685 883.07 989.932C878.747 993.548 873.944 997 867.698 997 859.533 997 853 991.164 853 984.014 853 971.028 868.947 968.233 880.667 965.521L883.067 964.945 883.067 962.397C883.067 957.219 878.933 954.425 872.979 954.425 867.119 954.425 863.084 957.713 860.01 961.576L854.726 958.206C859.144 952.781 864.909 949 872.979 949 880.183 949 890.558 952.781 890.558 963.137L890.558 985.658C890.653 989.027 890.463 992.479 892 995.685L883.839 995.685ZM880.091 970.945C872.982 972.753 860.014 975.219 860.014 983.356 860.014 987.137 863.47 990.918 867.986 990.918 873.94 990.918 879.418 987.384 883.07 983.521L883.07 970.206 880.091 970.945Z" fill-rule="evenodd"/><path d="M913.803 949.857 925.997 949.857 925.997 955.335 913.803 955.335 913.803 984.135C913.803 988.617 913.703 991.522 919.95 991.522 922.098 991.522 924.144 991.356 926 990.941L926 995.672C923.563 996.419 921.026 997 918.389 997 905.511 997 906.196 989.613 906.196 981.23L906.196 955.335 898 955.335 898 949.857 906.196 949.857 906.196 935 913.807 935 913.807 949.857Z" fill-rule="evenodd"/><path d="M962.63 995.685 961.841 989.932C957.408 993.548 952.481 997 946.075 997 937.701 997 931 991.164 931 984.014 931 971.028 947.356 968.233 959.376 965.521L961.838 964.945 961.838 962.397C961.838 957.219 957.599 954.425 951.491 954.425 945.482 954.425 941.343 957.713 938.19 961.576L932.771 958.206C937.302 952.781 943.214 949 951.491 949 958.88 949 969.521 952.781 969.521 963.137L969.521 985.658C969.618 989.027 969.424 992.479 971 995.685L962.63 995.685ZM958.786 970.945C951.495 972.753 938.194 975.219 938.194 983.356 938.194 987.137 941.739 990.918 946.37 990.918 952.478 990.918 958.095 987.384 961.841 983.521L961.841 970.206 958.786 970.945Z" fill-rule="evenodd"/></g></svg>