<svg width="3123" height="1288" xmlns="http://www.w3.org/2000/svg" xmlns:xlink="http://www.w3.org/1999/xlink" xml:space="preserve" overflow="hidden"><defs><clipPath id="clip0"><rect x="172" y="387" width="3123" height="1288"/></clipPath></defs><g clip-path="url(#clip0)" transform="translate(-172 -387)"><rect x="1734" y="570" width="1554" height="1098" stroke="#000000" stroke-width="13.75" stroke-miterlimit="8" fill="none"/><path d="M3084 794 3084 1517.5" stroke="#000000" stroke-width="13.75" stroke-miterlimit="8" fill="none" fill-rule="evenodd"/><rect x="1648.5" y="798.5" width="172" height="724" stroke="#FFFFFF" stroke-width="4.58333" stroke-miterlimit="8" fill="#FFFFFF"/><text fill="#333333" font-family="Times New Roman,Times New Roman_MSFontService,sans-serif" font-style="italic" font-weight="400" font-size="110" transform="matrix(1 0 0 1 1382.76 1159)">Lens</text><text fill="#333333" font-family="Times New Roman,Times New Roman_MSFontService,sans-serif" font-style="italic" font-weight="400" font-size="110" transform="matrix(1 0 0 1 2824.09 1160)">Film</text><text fill="#333333" font-family="Times New Roman,Times New Roman_MSFontService,sans-serif" font-style="italic" font-weight="400" font-size="110" transform="matrix(1 0 0 1 2233 527)">Opaque box</text><path d="M172 987 3073.09 987" stroke="#FFFF00" stroke-width="13.75" stroke-miterlimit="8" fill="none" fill-rule="evenodd"/><path d="M172 1185 3073.09 1185" stroke="#FFFF00" stroke-width="13.75" stroke-miterlimit="8" fill="none" fill-rule="evenodd"/><path d="M172 1383 3073.09 1383" stroke="#FFFF00" stroke-width="13.75" stroke-miterlimit="8" fill="none" fill-rule="evenodd"/><path d="M1734.5 798C1781.72 798 1820 958.953 1820 1157.5 1820 1354.43 1782.32 1514.71 1735.49 1516.98" stroke="#4472C4" stroke-width="13.75" stroke-miterlimit="8" fill="none" fill-rule="evenodd"/><path d="M86.0001 0C133.497-1.83077e-13 172 160.954 172 359.5 172 558.046 133.497 719 86.0001 719 85.4698 719 84.9395 718.98 84.4093 718.939" stroke="#4472C4" stroke-width="13.75" stroke-miterlimit="8" fill="none" fill-rule="evenodd" transform="matrix(-1 0 0 1 1820 798)"/><text fill="#333333" font-family="Times New Roman,Times New Roman_MSFontService,sans-serif" font-style="italic" font-weight="400" font-size="110" transform="matrix(1 0 0 1 267.785 1225)">light</text><path d="M2701.02 794 2701.02 1517.5 2695.67 1517.5 2695.67 794ZM2690.33 794 2690.33 1517.5 2684.98 1517.5 2684.98 794Z"/><text fill="#333333" font-family="Times New Roman,Times New Roman_MSFontService,sans-serif" font-style="italic" font-weight="400" font-size="110" transform="matrix(1 0 0 1 2339.85 1157)">Shutter</text><path d="M1891 798 1891 1018" stroke="#000000" stroke-width="13.75" stroke-miterlimit="8" fill="none" fill-rule="evenodd"/><path d="M1891 1302 1891 1522" stroke="#000000" stroke-width="13.75" stroke-miterlimit="8" fill="none" fill-rule="evenodd"/><text fill="#333333" font-family="Times New Roman,Times New Roman_MSFontService,sans-serif" font-style="italic" font-weight="400" font-size="110" transform="matrix(1 0 0 1 1918.79 946)">Aperture</text></g></svg>